HIERARCHY
ROOT Hips
{
 OFFSET 0.000000 0.000000 0.000000
 CHANNELS 6 Xposition Yposition Zposition Yrotation Xrotation Zrotation
 JOINT Chest
 {
  OFFSET 0.000000 9.581000 -0.001100
  CHANNELS 3 Yrotation Xrotation Zrotation
  JOINT Chest2
  {
   OFFSET 0.000000 9.561100 0.002200
   CHANNELS 3 Yrotation Xrotation Zrotation
   JOINT Chest3
   {
    OFFSET 0.000000 9.521100 0.000000
    CHANNELS 3 Yrotation Xrotation Zrotation
    JOINT Chest4
    {
     OFFSET 0.000000 9.511400 0.000000
     CHANNELS 3 Yrotation Xrotation Zrotation
     JOINT Neck
     {
      OFFSET 0.000000 14.375100 0.000000
      CHANNELS 3 Yrotation Xrotation Zrotation
      JOINT Head
      {
       OFFSET 0.000000 8.901200 0.004600
       CHANNELS 3 Yrotation Xrotation Zrotation
       End Site
       {
        OFFSET 0.000000 16.962200 0.002400
       }
      }
     }
     JOINT RightCollar
     {
      OFFSET -2.920100 9.518800 0.000000
      CHANNELS 3 Yrotation Xrotation Zrotation
      JOINT RightShoulder
      {
       OFFSET -13.664500 0.000000 0.000000
       CHANNELS 3 Yrotation Xrotation Zrotation
       JOINT RightElbow
       {
        OFFSET 0.000000 -29.999200 0.000000
        CHANNELS 3 Yrotation Xrotation Zrotation
        JOINT RightWrist
        {
         OFFSET 0.000000 -24.253600 0.000000
         CHANNELS 3 Yrotation Xrotation Zrotation
         End Site
         {
          OFFSET 0.000000 -17.918900 0.000000
         }
        }
       }
      }
     }
     JOINT LeftCollar
     {
      OFFSET 2.920100 9.518800 0.000000
      CHANNELS 3 Yrotation Xrotation Zrotation
      JOINT LeftShoulder
      {
       OFFSET 13.664500 0.000000 0.000000
       CHANNELS 3 Yrotation Xrotation Zrotation
       JOINT LeftElbow
       {
        OFFSET 0.000000 -29.999200 0.000000
        CHANNELS 3 Yrotation Xrotation Zrotation
        JOINT LeftWrist
        {
         OFFSET 0.000000 -24.253600 0.000000
         CHANNELS 3 Yrotation Xrotation Zrotation
         End Site
         {
          OFFSET 0.000000 -17.918900 0.000000
         }
        }
       }
      }
     }
    }
   }
  }
 }
 JOINT RightHip
 {
  OFFSET -7.797300 0.005300 0.000500
  CHANNELS 3 Yrotation Xrotation Zrotation
  JOINT RightKnee
  {
   OFFSET 0.000000 -40.663400 -0.000500
   CHANNELS 3 Yrotation Xrotation Zrotation
   JOINT RightAnkle
   {
    OFFSET 0.000000 -39.523700 -0.000900
    CHANNELS 3 Yrotation Xrotation Zrotation
    JOINT RightToe
    {
     OFFSET 0.000000 -6.418000 14.485300
     CHANNELS 3 Yrotation Xrotation Zrotation
     End Site
     {
      OFFSET 0.000000 -1.465200 6.326400
     }
    }
   }
  }
 }
 JOINT LeftHip
 {
  OFFSET 7.797300 0.005300 0.000500
  CHANNELS 3 Yrotation Xrotation Zrotation
  JOINT LeftKnee
  {
   OFFSET 0.000000 -40.663400 -0.000500
   CHANNELS 3 Yrotation Xrotation Zrotation
   JOINT LeftAnkle
   {
    OFFSET 0.000000 -39.523700 -0.000900
    CHANNELS 3 Yrotation Xrotation Zrotation
    JOINT LeftToe
    {
     OFFSET 0.000000 -6.418000 14.485300
     CHANNELS 3 Yrotation Xrotation Zrotation
     End Site
     {
      OFFSET 0.000000 -1.465200 6.326400
     }
    }
   }
  }
 }
}
MOTION
Frames: 11
Frame Time: 0.008333
-13.804421 126.912187 27.135357 -166.747615 -49.604544 -2.708932 -2.955353 25.607501 -0.177781 -0.470249 4.172315 0.068180 -0.741332 6.660543 0.079780 -2.401419 21.112961 -0.045587 3.412765 20.924980 1.453235 3.323484 -3.423074 0.779570 1.870881 3.032714 1.620940 6.145578 -8.347537 -10.706575 -97.440997 -64.670256 148.819846 6.620013 22.444613 -17.602701 -9.752128 -0.637785 -0.813345 -10.254900 -9.589554 12.762061 48.063547 -44.809612 -105.713135 8.938623 -14.075382 27.514816 -6.077327 -23.125191 -7.079877 -4.588801 78.361427 -4.189402 7.033699 -14.642284 2.972772 0.000502 -0.004017 0.000222 5.975178 6.185673 1.189401 128.012058 65.239618 147.616254 6.335498 12.266355 -0.181878 0.002887 0.001912 0.001279
-13.805192 126.911756 27.135793 -166.740474 -49.600356 -2.709192 -2.958837 25.606245 -0.186990 -0.465444 4.175660 0.061310 -0.745008 6.656002 0.088688 -2.399257 21.113988 -0.052253 3.426711 20.894186 1.442740 3.340400 -3.458102 0.765050 1.872295 3.026350 1.628324 6.152732 -8.336622 -10.707116 -97.479386 -64.687281 148.837914 6.607108 22.428959 -17.598036 -9.751524 -0.641814 -0.810988 -10.260777 -9.584304 12.761865 48.059479 -44.813686 -105.704737 8.941377 -14.076584 27.508847 -6.086414 -23.137187 -7.094140 -4.697888 78.386086 -4.289357 7.062646 -14.720529 2.948429 0.001360 -0.002594 0.000603 5.966651 6.184807 1.166157 128.014217 65.228049 147.606316 6.335502 12.228323 -0.091912 0.000925 -0.004757 0.000410
-13.804547 126.912093 27.135328 -166.737610 -49.601636 -2.715662 -2.956822 25.608856 -0.186203 -0.465428 4.175496 0.059457 -0.740991 6.658744 0.080496 -2.398140 21.112257 -0.050930 3.439207 20.878130 1.446919 3.368114 -3.505542 0.732890 1.874161 3.023426 1.639644 6.156085 -8.331566 -10.707254 -97.493208 -64.685911 148.844690 6.615939 22.434650 -17.602895 -9.749552 -0.643222 -0.805001 -10.261479 -9.585092 12.759020 48.046646 -44.817689 -105.690538 8.944909 -14.088467 27.507868 -6.090505 -23.148528 -7.095081 -4.720043 78.409872 -4.306910 7.069720 -14.753668 2.938581 0.001123 0.001856 0.000498 5.964764 6.185240 1.166283 128.012358 65.224184 147.602071 6.357175 12.242353 -0.114248 0.003464 -0.000522 0.001535
-13.804087 126.912350 27.134975 -166.741771 -49.602403 -2.715414 -2.952441 25.609570 -0.184721 -0.465641 4.175387 0.057872 -0.741666 6.658155 0.075712 -2.398017 21.112067 -0.056512 3.454097 20.864165 1.448324 3.397506 -3.553424 0.699433 1.878428 3.024321 1.651033 6.150187 -8.326597 -10.705269 -97.500445 -64.693901 148.845306 6.616921 22.437543 -17.595819 -9.745398 -0.640608 -0.796036 -10.261035 -9.582533 12.754941 48.042083 -44.814265 -105.693157 8.952135 -14.087827 27.501571 -6.089757 -23.149384 -7.097485 -4.712021 78.421315 -4.293693 7.077640 -14.822659 2.920112 0.001233 0.001864 0.000546 5.967801 6.185714 1.166564 128.016502 65.220415 147.601530 6.371976 12.246585 -0.126609 0.003900 0.002718 0.001728
-13.804028 126.912566 27.134737 -166.743896 -49.602865 -2.713925 -2.952179 25.609887 -0.189470 -0.464970 4.175418 0.059305 -0.743418 6.656494 0.070113 -2.394703 21.113372 -0.055126 3.479496 20.802940 1.403588 3.400595 -3.542339 0.725188 1.876644 3.026136 1.647297 6.142190 -8.322875 -10.692376 -97.502048 -64.696416 148.837989 6.621408 22.443525 -17.571530 -9.744307 -0.639163 -0.800731 -10.257130 -9.583486 12.759764 48.037471 -44.801144 -105.708431 8.939742 -14.081386 27.514283 -6.085171 -23.151924 -7.104778 -4.698075 78.434883 -4.269375 7.078334 -14.883763 2.900699 0.000626 0.001925 0.000277 5.963739 6.187009 1.155457 128.011206 65.213644 147.592172 6.385623 12.255410 -0.142283 0.004137 0.004734 0.001833
-13.804224 126.912395 27.134887 -166.747081 -49.600451 -2.709178 -2.957335 25.605589 -0.207140 -0.459779 4.175849 0.065497 -0.746517 6.655154 0.067762 -2.388753 21.115051 -0.053189 3.488709 20.787965 1.397486 3.403857 -3.542839 0.728220 1.871243 3.031939 1.646754 6.145191 -8.325956 -10.685971 -97.496531 -64.697728 148.815579 6.619927 22.442330 -17.559261 -9.754965 -0.638186 -0.808325 -10.245242 -9.579349 12.766564 48.036099 -44.799590 -105.716137 8.932756 -14.076141 27.516714 -6.075883 -23.153140 -7.117353 -4.678313 78.445038 -4.238173 7.094768 -14.966826 2.874289 0.000649 -0.002030 0.000288 5.960605 6.182842 1.143071 128.006699 65.205240 147.581975 6.392108 12.259528 -0.143063 0.003083 0.004341 0.001366
-13.803871 126.912365 27.134845 -166.744431 -49.598867 -2.711830 -2.965711 25.604073 -0.214345 -0.464883 4.173164 0.056415 -0.738063 6.656040 0.075021 -2.392528 21.111993 -0.061725 3.512576 20.751833 1.380274 3.429064 -3.567015 0.713468 1.872503 3.043914 1.651051 6.128957 -8.325149 -10.675920 -97.530563 -64.701724 148.833321 6.623669 22.444247 -17.533021 -9.751355 -0.631322 -0.805319 -10.239185 -9.589030 12.763215 48.019775 -44.792917 -105.707970 8.923369 -14.074071 27.524783 -6.076269 -23.166180 -7.117892 -4.687726 78.466310 -4.245972 7.095587 -14.991299 2.868537 0.000287 0.002167 0.000127 5.953513 6.179207 1.127096 127.997107 65.196220 147.566101 6.397853 12.258234 -0.113466 -0.000778 -0.000891 -0.000345
-13.803011 126.911884 27.135149 -166.748468 -49.593816 -2.711366 -2.969184 25.598686 -0.216668 -0.467032 4.172014 0.054636 -0.738325 6.654922 0.073429 -2.392660 21.109455 -0.069819 3.534886 20.715899 1.362586 3.453447 -3.588777 0.699635 1.851590 3.069248 1.647360 6.082995 -8.332552 -10.650316 -97.522715 -64.704510 148.897160 6.629872 22.446545 -17.541856 -9.743419 -0.624482 -0.801304 -10.241028 -9.589270 12.760819 48.014160 -44.790323 -105.708689 8.917801 -14.070746 27.518284 -6.075191 -23.175342 -7.115991 -4.690865 78.480987 -4.248116 7.106655 -15.044283 2.850758 0.000063 0.003617 0.000028 5.954771 6.173388 1.124114 128.004464 65.196352 147.573658 6.402170 12.257294 -0.093967 0.002459 -0.003000 0.001089
-13.802616 126.911878 27.135146 -166.765205 -49.593130 -2.698484 -2.961299 25.597141 -0.218576 -0.469138 4.171419 0.053358 -0.746453 6.653243 0.069495 -2.391520 21.107038 -0.074049 3.553701 20.687665 1.345328 3.504595 -3.671329 0.641164 1.846921 3.085159 1.647151 6.069584 -8.336816 -10.637708 -97.553145 -64.711989 148.928654 6.635553 22.453323 -17.527421 -9.733816 -0.618176 -0.801437 -10.249576 -9.583102 12.757551 48.015217 -44.793367 -105.712405 8.906186 -14.073653 27.509394 -6.071047 -23.168560 -7.115696 -4.721879 78.490612 -4.265983 7.093836 -15.155106 2.806348 0.000495 -0.000645 0.000219 5.964578 6.171290 1.120094 128.006065 65.196402 147.574029 6.418424 12.275545 -0.109839 0.003825 0.001222 0.001695
-13.803110 126.912061 27.135153 -166.772898 -49.593865 -2.686992 -2.967713 25.595685 -0.231834 -0.465219 4.172300 0.054483 -0.747281 6.653531 0.069174 -2.419370 21.105520 -0.091702 3.589362 20.655451 1.331622 3.538276 -3.725677 0.605007 1.870494 3.092175 1.652356 6.039151 -8.327623 -10.620971 -97.605997 -64.722545 148.960859 6.647759 22.458375 -17.476411 -9.716191 -0.615381 -0.801056 -10.254444 -9.571068 12.756710 48.020882 -44.797869 -105.718641 8.895478 -14.084018 27.504004 -6.075205 -23.169205 -7.119027 -4.736746 78.500643 -4.287105 7.100537 -15.223878 2.789283 0.000561 -0.000950 0.000249 5.966522 6.166686 1.097838 128.004196 65.189542 147.571842 6.432837 12.290430 -0.117729 0.000089 -0.001373 0.000040
-13.802764 126.912356 27.134902 -166.779570 -49.595260 -2.681426 -2.981308 25.593909 -0.243931 -0.458118 4.174241 0.055966 -0.743701 6.654171 0.069146 -2.433337 21.106598 -0.101587 3.608107 20.620090 1.314632 3.562009 -3.765530 0.582312 1.881628 3.095828 1.654234 6.001761 -8.310645 -10.597729 -97.647972 -64.735666 149.015762 6.656301 22.458926 -17.444360 -9.725645 -0.612333 -0.810802 -10.238885 -9.566112 12.767275 48.015899 -44.793132 -105.723973 8.885171 -14.095339 27.499146 -6.082680 -23.166286 -7.118018 -4.750957 78.508266 -4.306398 7.112535 -15.293933 2.771633 0.000373 -0.001493 0.000165 5.970449 6.164929 1.091675 128.007747 65.195484 147.583131 6.443712 12.313947 -0.149730 0.002571 -0.002986 0.001139
